<?xml version="1.0" standalone="no"?>
<!DOCTYPE svg PUBLIC "-//W3C//DTD SVG 20010904//EN"
 "http://www.w3.org/TR/2001/REC-SVG-20010904/DTD/svg10.dtd">
<svg version="1.0" xmlns="http://www.w3.org/2000/svg"
 width="271.000000pt" height="271.000000pt" viewBox="0 0 271.000000 271.000000"
 preserveAspectRatio="xMidYMid meet">
<metadata>
Created by potrace 1.14, written by Peter Selinger 2001-2017
</metadata>
<g transform="translate(0.000000,271.000000) scale(0.100000,-0.100000)"
fill="#000000" stroke="none">
<path d="M0 1355 l0 -1355 1355 0 1355 0 0 1355 0 1355 -1355 0 -1355 0 0
-1355z m1493 1190 c427 -64 762 -382 852 -810 22 -102 22 -294 2 -396 -22
-110 -76 -245 -138 -346 -47 -76 -108 -142 -461 -498 l-407 -410 -393 399
c-405 411 -454 465 -512 576 -165 315 -153 693 30 1002 67 114 239 286 349
349 218 126 439 170 678 134z"/>
<path d="M1205 2120 c-180 -36 -336 -173 -395 -346 -33 -95 -40 -257 -10 -239
6 3 10 25 10 48 1 181 131 379 300 460 79 37 156 57 220 57 41 0 61 14 34 24
-21 8 -109 6 -159 -4z"/>
<path d="M1240 2013 c-14 -3 -57 -20 -95 -38 -90 -43 -173 -128 -217 -220 -40
-87 -50 -212 -23 -311 59 -218 286 -364 507 -326 197 34 347 184 379 380 45
273 -172 525 -448 521 -43 -1 -89 -4 -103 -6z"/>
<path d="M2246 1589 c-3 -13 -7 -58 -11 -100 -12 -163 -86 -357 -191 -499 -26
-36 -195 -213 -376 -395 -313 -315 -328 -332 -328 -367 0 -21 3 -38 7 -38 16
0 701 703 745 765 120 168 177 344 179 544 1 90 -14 143 -25 90z"/>
</g>
</svg>
